<svg id="Layer_1" data-name="Layer 1" xmlns="http://www.w3.org/2000/svg" xmlns:xlink="http://www.w3.org/1999/xlink" viewBox="0 0 375.26 580.24"><defs><style>.cls-1{fill:none;}.cls-2{clip-path:url(#clip-path);}.cls-3{fill:#bfb47b;}.cls-4{fill:#ddd394;}.cls-5{fill:#eeb69b;}.cls-6{fill:#eaa78c;}.cls-7{fill:#f4ecb3;}.cls-8{fill:#c68997;}.cls-9{fill:#fff8cc;}.cls-10{fill:#291c15;}.cls-11{fill:#dcf4f4;}.cls-12{fill:#702f3c;}.cls-13{fill:#ff9797;}.cls-14{fill:#fff;}.cls-15{fill:#e2e1e0;}.cls-16{fill:#f9c2af;}.cls-17{fill:#0c3d72;}.cls-18{fill:#773942;}</style><clipPath id="clip-path" transform="translate(-1 0)"><rect class="cls-1" x="1" width="375.26" height="580.24"/></clipPath></defs><title>user</title><g class="cls-2"><path class="cls-3" d="M98,164.53s33.17-12.71,60-.25L152.81,180l-46.6.58Z" transform="translate(-1 0)"/><path class="cls-4" d="M167.65,176.73l-11.74-2.4-52,1.74-12.33,5.06s24.37,18,42.35,16.6c16.3-1.26,32.14-9,33.71-21" transform="translate(-1 0)"/><path class="cls-5" d="M238.37,234.22l66.38-30.93,10.77-11.42,24.3-15.62,1.82,3.12a6.93,6.93,0,0,1-.86,8.17l-9.29,10.19,13,10,27.06,15.37a9.33,9.33,0,0,1,2.56,14.05l-23.75-10.24-22.94,11.84-14.33-10.61L230.7,289.56s-31-40.77-38-53.12c-17-29.82-22.36-31.51-22.34-38.87,0-9.54,9.65-26.46,20.7-18.35,5.06,3.71,47.29,55,47.29,55" transform="translate(-1 0)"/><path class="cls-6" d="M329.8,201.44l-5.37,12.38L311.91,213l15.77,17.12,12.16-12.84s-12.17-3.38-11.86-4.06,1.82-11.81,1.82-11.81" transform="translate(-1 0)"/><path class="cls-6" d="M374.11,237.13s1.63-2.07.63-3.49S344.42,216,344.42,216l4,9.81Z" transform="translate(-1 0)"/><path class="cls-5" d="M341.64,233.8l11.61-3.21s14.58-11.68,14.52-13.74a2.76,2.76,0,0,0-.66-1.37A9,9,0,0,0,354.37,214l-6.68,5.22-10.63,4.58Z" transform="translate(-1 0)"/><path class="cls-6" d="M365.28,215.43a8.61,8.61,0,0,0-11.34,3.64l-4.87,8.66-2,3.76-2.57,1.43-7.45-9.16,10.63-4.58,6.68-5.22a9,9,0,0,1,12.74,1.52,2.77,2.77,0,0,1,.66,1.38,1,1,0,0,1-.11.4,8.6,8.6,0,0,0-2.37-1.82" transform="translate(-1 0)"/><path class="cls-5" d="M341.13,238.52l6.71-10.12s.57-18.7-1-20c-.51-.41-1.75-.46-3.21-.35a8.32,8.32,0,0,0-7.64,8l-.39,9.22-4.69,8.29Z" transform="translate(-1 0)"/><path class="cls-6" d="M343.6,208.06c1.46-.11,2.7-.06,3.21.35a1.53,1.53,0,0,1,.37.71,8.35,8.35,0,0,0-5.29,7.43l1.22,13.81-2,8.16-10.25-5,5.7-7.29-.21-10.68a7.55,7.55,0,0,1,7.23-7.52" transform="translate(-1 0)"/><path class="cls-5" d="M337.32,239.06,342.63,225s-14.94-8.52-16.92-8-2.55,6.8-2.55,6.8l7.72,5.67-3.46,9.25Z" transform="translate(-1 0)"/><path class="cls-6" d="M333.15,228.17l1.52-1.32s-6-4-8.4-6.83c-1.61-1.89.86-2.79.08-2.58-2,.54-2.35,6.07-2.35,6.07l6.9,6-3.46,9.25Z" transform="translate(-1 0)"/><polygon class="cls-6" points="312.09 228.13 304.55 222.76 229.7 289.56 312.09 228.13"/><path class="cls-7" d="M248.7,233.82l-4.11-2.8-6.22,3.2-.64-4.59-3.2-1.38-22.3-27.68,2.48-7.58L196.93,182.2s-37.63-3.65-40.48,17l25.7,26.62,47,67.16,34.36-25.49Z" transform="translate(-1 0)"/><path class="cls-4" d="M202.29,250.91c-.3.79-.63,1.57-1,2.36l-19.18-27.41-18.42-19.08,1.67-7.13,42.51-7.77s1.22,41.34-5.61,59" transform="translate(-1 0)"/><path class="cls-8" d="M194.89,178.59l15.35,8s-.57,30.23-22.42,45.75Z" transform="translate(-1 0)"/><path class="cls-9" d="M281,262s-15.27-30.06-20.24-41.4l-21.32,9.47s6.67,31.09,19.64,44.73Z" transform="translate(-1 0)"/><polygon class="cls-4" points="221.3 238.21 237.37 234.22 236 231.21 226.76 234.19 221.3 238.21"/><path class="cls-6" d="M155.07,148.3l.89,27.78s-8.62,17.78-25,15l-26.6-18.49-4-28.54Z" transform="translate(-1 0)"/><polygon class="cls-10" points="158.29 98.71 171.59 59.38 164.27 64.71 156.29 40.38 138.34 47.71 158.29 98.71"/><path class="cls-5" d="M78.27,93.89c4.2-1.48,9.22,1.28,12.87,6.49L83.66,48.54s52.86-12.5,72.81,9c0,0,2.9,16,5.9,34.62A6.92,6.92,0,0,1,164,92.1c6,.55,10.2,8.89,9.31,18.62-.56,6.07-3,11.25-6.15,14.15,1,7.66,1.64,14.28,1.74,18.68,0,0-13,17.75-20.45,20.25s-25.43.75-25.43.75-25.93-10.5-31.91-19V126.7a6.91,6.91,0,0,1-1.15.54c-5.71,2-13-3.81-16.2-13s-1.23-18.32,4.49-20.33" transform="translate(-1 0)"/><path class="cls-6" d="M166.44,118s4.82-7.25,3.19-14.25-6.43-7.5-3.19,14.25" transform="translate(-1 0)"/><path class="cls-10" d="M155.45,57.66a34.12,34.12,0,0,0,10.47-2.11c5.31-2.24,9.29-6.76,12.73-11.38a117,117,0,0,0,13.43-23.22,56.88,56.88,0,0,1-17.35,13.77c.41-5.85.67-12.27-2.83-17a22.69,22.69,0,0,0-6.79-5.53A130.58,130.58,0,0,0,138.48,0c3,9.26,4.12,8.45,5.56,18.08-1.51-3.26-5.5-4.37-9-5-19-3.63-42.45-.57-61.84,0-.83,8.08,1.71,17.31,4.32,25C71,39,68,44.61,61.46,45.52,78.17,62,82.91,93.79,82.91,93.79c5.49,5,7,14.75,7,14.75l4.77.23S84.49,92.38,91.14,76.54c.27-.63-12.33-24,6.48-21.5a353.45,353.45,0,0,0,35.47,3.07,177.07,177.07,0,0,0,22.36-.46" transform="translate(-1 0)"/><path class="cls-11" d="M138.71,90.73a19.36,19.36,0,1,0,38.71,0c0-10.72-8.17-10.37-18.86-10.37S138.71,80,138.71,90.73" transform="translate(-1 0)"/><path class="cls-12" d="M158.07,111.64a20.9,20.9,0,0,0,20.85-20.91c0-5.4-2-8.83-6.05-10.48-3.47-1.4-8-1.4-13.34-1.4H157.6c-5.22,0-10.13,0-13.82,1.38-4.42,1.66-6.56,5.1-6.56,10.49a20.9,20.9,0,0,0,20.85,20.91m2.41-29.78c4.58,0,8.53.07,11.27,1.18,2.07.84,4.18,2.41,4.18,7.7a17.86,17.86,0,1,1-35.72,0c0-5.27,2.47-6.87,4.62-7.68,3.18-1.2,7.84-1.19,12.77-1.19h2.88" transform="translate(-1 0)"/><path class="cls-11" d="M89.42,92.06a19.36,19.36,0,1,0,38.71,0c0-10.72-7.25-11.71-17.94-11.71s-20.77,1-20.77,11.71" transform="translate(-1 0)"/><path class="cls-12" d="M108.78,113a20.9,20.9,0,0,0,20.85-20.91c0-12.21-8.8-13.21-19.44-13.21-8.33,0-22.27,0-22.27,13.21A20.9,20.9,0,0,0,108.78,113m1.42-31.12c11.6,0,16.44,1.42,16.44,10.21a17.86,17.86,0,1,1-35.72,0c0-8.54,7.07-10.21,19.28-10.21" transform="translate(-1 0)"/><path class="cls-12" d="M129.19,92.3c5.43-3.54,8.32-.67,8.44-.54l2.19-2c-1.57-1.71-6.16-3.9-12.26.07Z" transform="translate(-1 0)"/><path class="cls-13" d="M133.35,92.64l-3.48,18.6a2.5,2.5,0,0,0,2.17,2.94l13.31,1.53a2.6,2.6,0,0,0,2.88-3.78L137.08,91.38a2,2,0,0,0-3.74,1.26" transform="translate(-1 0)"/><path class="cls-14" d="M156.3,122.38s-22.44-.25-44.71-1.58c0,0,2.82,20.25,22.44,20.25,22.94,0,22.27-18.67,22.27-18.67" transform="translate(-1 0)"/><path class="cls-6" d="M85.32,120s-12.63-8.25-8.39-18C80,94.94,87,107,85.32,120" transform="translate(-1 0)"/><path class="cls-10" d="M155,89.8a.43.43,0,0,1-.55.66c-4.88-2.81-9.3,1-10.56,2.21a.43.43,0,0,1-.66-.06L142,90.83a.45.45,0,0,1,0-.55C147.7,84,152.43,87,155,89.8M106.37,90.9c3.29-2.79,9.52-6,17.08.35a.45.45,0,0,1,0,.64l-1.7,1.86a.43.43,0,0,1-.58.05c-1.42-1.11-7.6-5.4-14.38-2.16a.44.44,0,0,1-.46-.74" transform="translate(-1 0)"/><path class="cls-12" d="M65.21,95.29c.25-2,23.27-5.83,23.27-5.83l.08,4.75s-1.65.2-4.5.74c-1.78-1.94-7.42-2.69-10.47,3.5-.05.11-2.64.74-4.14,2.13-.77.71-.65,2.41-4.11.5-1.11-.61-.37-3.78-.12-5.78" transform="translate(-1 0)"/><path class="cls-15" d="M112.78,125.33a26,26,0,0,1-1.2-4.54c22.27,1.33,44.71,1.58,44.71,1.58a17.19,17.19,0,0,1-.42,3.76c-6.39-1.95-20.81-4.8-43.1-.81" transform="translate(-1 0)"/><path class="cls-16" d="M126.17,147.17A32,32,0,0,0,137,148.54a25,25,0,0,0,9.23-2l3.43,16.75a9.46,9.46,0,0,1-1.18.5c-6.57,2.2-21.2,1.11-24.68.82Z" transform="translate(-1 0)"/><path class="cls-6" d="M150.35,145.83a83.69,83.69,0,0,1-28.3.88s18.81,9.69,28.3-.88" transform="translate(-1 0)"/><path class="cls-14" d="M143.5,142.21s-10,.33-11.3.83,13.63,1.5,11.3-.83" transform="translate(-1 0)"/><polygon class="cls-3" points="128.73 176.94 133.52 193.03 102.97 175.03 97.04 164.53 128.73 176.94"/><polygon class="cls-3" points="141.2 176.07 137.42 193.53 164.34 176.68 157.07 164.28 141.2 176.07"/><path class="cls-17" d="M142.79,190.43l4,11.72H129.67l2.2-13.07s11.62-2.08,10.91,1.36" transform="translate(-1 0)"/><path class="cls-10" d="M143.78,179.81c-2.55-2.92-13-3.13-15.47-.18s2.53,14.82,2.53,14.82,3.59-2.91,12.47-1.42c.89.15,2.8-10.55.47-13.22" transform="translate(-1 0)"/><path class="cls-10" d="M190.51,334.75s10.94,67.77-3.11,139.1c0,0-16.38,60-6.57,101.33,0,0-27.5,8.67-49.07,0,0,0,4.63-69.33,20.12-96.67l-1-90.7H138.51l-15.67,90-16.57,97.33s-50.94,14.36-47.9-5.33c.62-4,32-98.67,32-98.67l4.07-126.84Z" transform="translate(-1 0)"/><polygon class="cls-7" points="195.24 331.79 197.71 356.41 165.62 371.94 144.37 358.94 142.72 341.8 134.45 371.94 87.47 365.94 82.39 357.4 89.76 340.9 103.53 335.65 195.24 331.79"/><polygon class="cls-9" points="87.47 360.65 134.45 366.65 148.23 322.64 149.1 357.21 165.81 369.77 197.46 353.97 197.71 356.41 165.62 371.94 144.37 358.94 142.72 341.8 134.45 371.94 87.47 365.94 82.39 357.4 83.74 354.38 87.47 360.65"/><path class="cls-4" d="M147.33,351.87a2.76,2.76,0,1,0,2.76-2.76,2.76,2.76,0,0,0-2.76,2.76" transform="translate(-1 0)"/><path class="cls-9" d="M147.81,351.64a2.53,2.53,0,1,0,2.53-2.53,2.53,2.53,0,0,0-2.53,2.53" transform="translate(-1 0)"/><path class="cls-4" d="M150.46,351a.47.47,0,1,0,.47-.47.47.47,0,0,0-.47.47" transform="translate(-1 0)"/><path class="cls-4" d="M149.29,352.34a.47.47,0,1,0,.47-.47.47.47,0,0,0-.47.47" transform="translate(-1 0)"/><path class="cls-18" d="M87.57,180.67c2.94,7.78,19.75,22.29,50.85,19.35,35.91-3.39,33.87-22.25,31.55-25.69h0c12.52,1.35,23.52,3.19,24.94,4.26,12,9,15,36.88,14.46,49.74-.78,20.44-3.7,88.65-7.48,108.78-1,5.24-43.8,14-113.31,6.64C89.13,322,61.29,229,51.21,204.74c-1.75-4.21,8.59-15.93,36.36-24.06" transform="translate(-1 0)"/><path class="cls-12" d="M189.57,250.65q-1.9-3.14-3.84-6.27-3.44-1.65-6.93-3.26,3.35-1.87,6.76-3.69,1.8-3.22,3.65-6.44,2,3.14,3.88,6.3,3.47,1.7,6.89,3.44-3.43,1.73-6.81,3.51-1.83,3.2-3.61,6.41" transform="translate(-1 0)"/><path class="cls-12" d="M163.19,226.52a5.06,5.06,0,1,1,5.14,4.89,5,5,0,0,1-5.14-4.89" transform="translate(-1 0)"/><path class="cls-12" d="M74.31,276.76q-.81-2.89-1.63-5.77a515,515,0,0,1,135.5-15.67q-.14,2.94-.29,6A509.09,509.09,0,0,0,74.31,276.76" transform="translate(-1 0)"/><path class="cls-12" d="M84.84,234.92a5.06,5.06,0,1,1,5.85,4,5,5,0,0,1-5.85-4" transform="translate(-1 0)"/><path class="cls-12" d="M126.23,228.92a5.06,5.06,0,1,1,5.49,4.49,5,5,0,0,1-5.49-4.49" transform="translate(-1 0)"/><path class="cls-12" d="M147.17,246.77q-3.55-1.39-7.15-2.74,3.21-2.11,6.46-4.18,1.56-3.35,3.17-6.69,2.19,3,4.33,6,3.58,1.44,7.12,2.93-3.29,2-6.53,4-1.59,3.32-3.12,6.66-2.12-3-4.28-6" transform="translate(-1 0)"/><path class="cls-12" d="M103.2,253q-3.66-1.09-7.36-2.12,3-2.37,6.1-4.71,1.28-3.47,2.6-6.93,2.43,2.79,4.82,5.61,3.69,1.13,7.34,2.32-3.11,2.25-6.17,4.53-1.3,3.45-2.56,6.9-2.36-2.81-4.77-5.59" transform="translate(-1 0)"/><path class="cls-12" d="M137.38,327.57a5.06,5.06,0,1,1,5.74,4.17,5,5,0,0,1-5.74-4.17" transform="translate(-1 0)"/><path class="cls-12" d="M174.14,323a5.06,5.06,0,1,1,5.42,4.58,5,5,0,0,1-5.42-4.58" transform="translate(-1 0)"/><path class="cls-12" d="M96.4,335.95a5.06,5.06,0,1,1,6.07,3.67,5,5,0,0,1-6.07-3.67" transform="translate(-1 0)"/><path class="cls-12" d="M204.46,222.1a5,5,0,1,1-5.34,4.74,5,5,0,0,1,5.34-4.74" transform="translate(-1 0)"/><path class="cls-12" d="M205.27,204.45q-1.67-3.27-3.38-6.53-3.32-1.9-6.69-3.75,3.49-1.62,7-3.19l.74-1.1a68.62,68.62,0,0,1,3.86,12.25l-1.55,2.33" transform="translate(-1 0)"/><path class="cls-12" d="M205.4,303.36q-.22,3.07-.46,6A509.14,509.14,0,0,0,86.42,326.13q-.53-2.82-1.18-5.89A515.09,515.09,0,0,1,205.4,303.36" transform="translate(-1 0)"/><path class="cls-12" d="M158.55,274.88a5.06,5.06,0,1,1-5.49-4.54,5.05,5.05,0,0,1,5.49,4.54" transform="translate(-1 0)"/><path class="cls-12" d="M167.31,203.75q-1.9-3.14-3.84-6.27c-1.63-.78-3.27-1.54-4.91-2.31,5.13-2.39,8.27-5.33,10.13-8.25.71,1.16,1.43,2.31,2.14,3.47q3.47,1.7,6.89,3.44-3.43,1.73-6.81,3.51-1.82,3.2-3.6,6.41" transform="translate(-1 0)"/><path class="cls-12" d="M208.14,209.3c.31,2.06.55,4.1.74,6.07A509.06,509.06,0,0,0,59.55,228c-.65-2-1.29-3.89-1.91-5.73a515.07,515.07,0,0,1,150.5-13" transform="translate(-1 0)"/><path class="cls-12" d="M80.22,287.65a5,5,0,0,1-1.61,5q-1.12-4.27-2.31-8.63a4.94,4.94,0,0,1,3.92,3.67" transform="translate(-1 0)"/><path class="cls-12" d="M206.44,287.72l-.13,2.17-2.07-1,2.21-1.16" transform="translate(-1 0)"/><path class="cls-12" d="M88.28,204.82q-1.3,3.45-2.56,6.9-2.37-2.81-4.77-5.59Q77.29,205,73.59,204q3-2.37,6.1-4.71,1.28-3.47,2.6-6.93,2.43,2.79,4.82,5.61,3.69,1.13,7.34,2.32-3.11,2.25-6.17,4.53" transform="translate(-1 0)"/><path class="cls-12" d="M131.76,200.39c-.86,1.82-1.72,3.64-2.57,5.46q-2-2.82-4-5.62c2.11.14,4.31.2,6.59.16" transform="translate(-1 0)"/><path class="cls-12" d="M53.19,209.78c-.34-.89-.66-1.74-1-2.53l3.09.72-2.12,1.81" transform="translate(-1 0)"/><path class="cls-12" d="M96.55,298.93q3.75.92,7.46,1.89-3,2.42-5.9,4.88-1.1,3.51-2.16,7-2.52-2.67-5.08-5.31-3.72-.88-7.47-1.7,2.88-2.54,5.82-5.05,1.08-3.54,2.2-7.07,2.59,2.65,5.14,5.32" transform="translate(-1 0)"/><path class="cls-12" d="M117.06,280a5.06,5.06,0,1,1-5.86-4.06,5,5,0,0,1,5.86,4.06" transform="translate(-1 0)"/><path class="cls-12" d="M190.42,268.31a5,5,0,1,1-5,5.11,5,5,0,0,1,5-5.11" transform="translate(-1 0)"/><path class="cls-12" d="M77.56,254.86q-2.94,2.48-5.83,5c-.38,1.3-.75,2.61-1.13,3.91-1.43-4.89-2.87-9.72-4.3-14.41,1.26,1.25,2.52,2.5,3.76,3.75q3.77.85,7.5,1.75" transform="translate(-1 0)"/><path class="cls-12" d="M140.77,290.67q3.65,1.23,7.27,2.51-3.17,2.16-6.29,4.37-1.39,3.41-2.74,6.82-2.29-2.87-4.62-5.72-3.63-1.19-7.29-2.32,3.08-2.29,6.21-4.54,1.37-3.43,2.78-6.86,2.36,2.86,4.67,5.73" transform="translate(-1 0)"/><path class="cls-12" d="M176.95,300.07q-2.07-3-4.19-6-3.53-1.45-7.11-2.85,3.24-2.06,6.53-4.08,1.62-3.32,3.28-6.64,2.14,3,4.24,6.06,3.56,1.5,7.08,3-3.32,1.93-6.6,3.9-1.64,3.3-3.23,6.6" transform="translate(-1 0)"/><path class="cls-8" d="M95.59,178.56c4.38,8.66,20.69,15,42.34,13.45,23-1.62,27.93-11.38,25.95-18.13-7.14-.67-3.22-.54,6.09.47,2.32,3.44,4.36,22.3-31.55,25.69-31.1,2.94-47.91-11.57-50.85-19.35q3.79-1.11,8-2.12" transform="translate(-1 0)"/><polygon class="cls-9" points="90.59 178.9 97.04 164.53 128.73 176.94 121.84 197.73 90.59 178.9"/><polygon class="cls-9" points="166.52 177.51 157.07 164.28 141.2 176.07 150.6 195.7 166.52 177.51"/><path class="cls-8" d="M71.69,197.68c3.77,9.07,7.83,22.87,5.88,37.47-3.38,25.3-15.23,30.66-15.23,30.66l-10.12-5.36s-3.13-55.48,0-62.64A17.23,17.23,0,0,1,58.37,191c3.88-2.69,10.55,0,13.32,6.68" transform="translate(-1 0)"/><path class="cls-7" d="M64.45,201.09c4.63,11,11.43,31.72,2.77,42.48l-26.6,71.18L1,321.79V275.9l42.89-70.07v-5.24L49,198.47l8.14-3.17s5.41,1.35,7.27,5.79" transform="translate(-1 0)"/><path class="cls-4" d="M30.68,227.78l39.61-8.34c1.78,8.86,1.81,18.07-3.07,24.13L47.91,295.24Z" transform="translate(-1 0)"/><polygon class="cls-4" points="37.56 268.31 6.98 268.31 13.63 265.1 37.56 268.31"/><polygon class="cls-10" points="147.46 297.46 99.4 195.3 31.29 224.77 72.59 326.13 147.46 297.46"/><path class="cls-9" d="M85.79,211.32a.77.77,0,0,0-.45.41,1,1,0,0,0-.08.48l.85,12.5a.42.42,0,0,0,0,.13.4.4,0,0,0,.22.22.39.39,0,0,0,.31,0l3.14-1.35a.69.69,0,0,0,.41-.35.93.93,0,0,0,.07-.36l-.07-1.3,3.65-1.57.89.95a1,1,0,0,0,.31.2.69.69,0,0,0,.54-.06l3.14-1.35a.41.41,0,0,0,.21-.54.42.42,0,0,0-.07-.11L90.49,210a.94.94,0,0,0-.4-.27.78.78,0,0,0-.61,0Zm3.9,6.67-.38-3.58,2.31,2.76Z" transform="translate(-1 0)"/><path class="cls-9" d="M75.21,225.85a.5.5,0,0,0-.26.66l1.1,2.57a.5.5,0,0,0,.65.26l8.57-3.68a.47.47,0,0,0,.26-.27.49.49,0,0,0,0-.38l-4.7-11a.5.5,0,0,0-.66-.26l-3.4,1.46a.47.47,0,0,0-.26.27.49.49,0,0,0,0,.38l3.41,8Z" transform="translate(-1 0)"/><path class="cls-9" d="M68.56,231.09a1.27,1.27,0,0,1,1.85.72q.66,1.39,1.24,2.9a1.74,1.74,0,0,1,.08,1.27,1.5,1.5,0,0,1-.84.76,1.93,1.93,0,0,1-1.17.17,1.17,1.17,0,0,1-.8-.77l.8-.34a.51.51,0,0,0,.26-.66l-.81-1.89a.51.51,0,0,0-.66-.26l-4.67,2a.51.51,0,0,0-.26.66l.95,2.21a4.84,4.84,0,0,0,1.3,1.84,4.54,4.54,0,0,0,1.83.95,5.79,5.79,0,0,0,2.23.1,9.57,9.57,0,0,0,2.49-.72,9.42,9.42,0,0,0,2.2-1.29,5.5,5.5,0,0,0,1.4-1.63,4.38,4.38,0,0,0,.53-2,5.78,5.78,0,0,0-.42-2.27q-.26-.71-.61-1.53c-.23-.55-.47-1.06-.7-1.54a5.32,5.32,0,0,0-1.32-1.77,4.28,4.28,0,0,0-1.78-.91,5.65,5.65,0,0,0-2.14-.08,9.41,9.41,0,0,0-2.41.7,9.63,9.63,0,0,0-2.29,1.35,6.64,6.64,0,0,0-1.48,1.61,4.33,4.33,0,0,0-.65,1.71,3.16,3.16,0,0,0,.19,1.64.39.39,0,0,0,.22.22.39.39,0,0,0,.31,0l3.76-1.61a.65.65,0,0,0,.41-.4l.05-.23a1.13,1.13,0,0,1,.13-.32,1.42,1.42,0,0,1,.28-.34,1.68,1.68,0,0,1,.49-.3" transform="translate(-1 0)"/><path class="cls-9" d="M54.54,243.57a.49.49,0,0,0-.27.28.49.49,0,0,0,0,.38l1,2.4a.47.47,0,0,0,.27.26.48.48,0,0,0,.38,0l8.85-3.8a.47.47,0,0,0,.26-.27.48.48,0,0,0,0-.38l-4.7-11a.48.48,0,0,0-.28-.26.48.48,0,0,0-.38,0L51,234.9a.47.47,0,0,0-.26.27.48.48,0,0,0,0,.38l1,2.4a.5.5,0,0,0,.66.26l5.1-2.19.46,1.07-4.72,2a.51.51,0,0,0-.26.66l.95,2.22a.48.48,0,0,0,.27.27.49.49,0,0,0,.38,0l4.72-2,.46,1.07Z" transform="translate(-1 0)"/><path class="cls-9" d="M101.61,243.52a.51.51,0,0,0,.26-.66l-4.7-11a.51.51,0,0,0-.66-.26L90.88,234a6.32,6.32,0,0,0-3.2,2.42,3.5,3.5,0,0,0,0,3.18,2.27,2.27,0,0,0,.46.7,2.7,2.7,0,0,0,.6.47,3.05,3.05,0,0,0,.64.27,2.48,2.48,0,0,0,.57.11,2.78,2.78,0,0,0-.46.65,3.08,3.08,0,0,0-.28.79,3.14,3.14,0,0,0,0,.86,2.79,2.79,0,0,0,.22.86,3.58,3.58,0,0,0,2.44,2.31,6.44,6.44,0,0,0,4-.62Zm-5-1.3L95,242.9a.72.72,0,0,1-.72,0,1.1,1.1,0,0,1-.42-.49,1,1,0,0,1,0-.65.74.74,0,0,1,.47-.52l1.58-.68Zm-4.38-4.37a1.06,1.06,0,0,1-.06-.6.64.64,0,0,1,.43-.49l1.43-.61.66,1.55-1.43.61a.64.64,0,0,1-.64,0,1,1,0,0,1-.38-.45" transform="translate(-1 0)"/><path class="cls-9" d="M78.75,252.67a.47.47,0,0,0,0,.21.39.39,0,0,0,.22.22.39.39,0,0,0,.31,0l3.48-1.5a.75.75,0,0,0,.44-.39,1.15,1.15,0,0,0,.1-.38l.07-3.88.7-.3,1.39,3.26a.48.48,0,0,0,.28.27.47.47,0,0,0,.38,0l3.33-1.43a.48.48,0,0,0,.27-.27.49.49,0,0,0,0-.38l-4.7-11a.51.51,0,0,0-.65-.26l-5,2.16a8.54,8.54,0,0,0-2.07,1.22A5,5,0,0,0,76,241.71a4,4,0,0,0-.46,1.74,4.42,4.42,0,0,0,.38,1.89,4.09,4.09,0,0,0,1.36,1.77,4.4,4.4,0,0,0,1.9.77Zm4-9.27-1.24.53a.74.74,0,0,1-.7,0,1.08,1.08,0,0,1-.45-.52,1.34,1.34,0,0,1-.09-.72.7.7,0,0,1,.48-.56l1.24-.53Z" transform="translate(-1 0)"/><path class="cls-9" d="M65.59,244.88a.78.78,0,0,0-.45.41,1,1,0,0,0-.08.48l.86,12.5a.41.41,0,0,0,.26.34.39.39,0,0,0,.31,0l3.14-1.35a.69.69,0,0,0,.41-.35,1,1,0,0,0,.07-.36l-.07-1.3,3.65-1.57.89.95a.91.91,0,0,0,.31.2.7.7,0,0,0,.54-.06l3.14-1.35a.41.41,0,0,0,.21-.54.4.4,0,0,0-.07-.11l-8.43-9.24a.94.94,0,0,0-.4-.27.78.78,0,0,0-.61,0Zm3.9,6.68L69.1,248l2.31,2.76Z" transform="translate(-1 0)"/><path class="cls-5" d="M136,252.26c-.49-4.62-10.88-26.36-10.88-26.36l-11.66-3.18,3.21,7.1-17.08,2.6L85.57,258.61l-55.1,8.89,5.72,32.57,4.42,8.83,87-40.6Z" transform="translate(-1 0)"/><polygon class="cls-6" points="89.38 268.31 109.66 249.35 126.64 268.31 39.61 308.9 35.19 300.07 31.81 280.82 89.38 268.31"/><path class="cls-9" d="M52.19,261.44s0,22.26,9.26,43.92l-28.23,9.81s-12.28-34.69-4.47-53.72Z" transform="translate(-1 0)"/><polygon class="cls-6" points="116.69 232.23 115.7 229.82 101.7 238.6 103 242.96 116.69 232.23"/></g></svg>